<svg width="40" height="40" viewBox="0 0 40 40" fill="none" xmlns="http://www.w3.org/2000/svg">
<g id="Coins/Ton" clip-path="url(#clip0_3547_457)">
<path id="Vector" d="M40 20C40 8.9543 31.0457 0 20 0C8.9543 0 0 8.9543 0 20C0 31.0457 8.9543 40 20 40C31.0457 40 40 31.0457 40 20Z" fill="#0098EA"/>
<path id="Vector_2" d="M26.831 11H13.173C10.661 11 9.06999 13.709 10.333 15.899L18.763 30.509C18.8884 30.7267 19.069 30.9074 19.2865 31.0331C19.504 31.1588 19.7508 31.225 20.002 31.225C20.2532 31.225 20.5 31.1588 20.7175 31.0331C20.935 30.9074 21.1156 30.7267 21.241 30.509L29.672 15.899C30.934 13.712 29.342 11 26.832 11H26.831ZM18.756 26.128L16.92 22.575L12.49 14.653C12.4226 14.5347 12.3877 14.4008 12.3886 14.2647C12.3895 14.1286 12.4263 13.9951 12.4953 13.8778C12.5642 13.7604 12.6629 13.6634 12.7814 13.5963C12.8999 13.5293 13.0339 13.4947 13.17 13.496H18.754V26.13L18.756 26.128ZM27.51 14.651L23.082 22.577L21.246 26.128V13.494H26.829C27.441 13.494 27.803 14.144 27.51 14.651Z" fill="white"/>
</g>
<defs>
<clipPath id="clip0_3547_457">
<rect width="40" height="40" fill="white"/>
</clipPath>
</defs>
</svg>
